# xmcd
#
# Track frame offsets:
#	150
#	16189
#	33271
#	52219
#	67364
#	78583
#	95603
#	111617
#	127850
#	146975
#	160310
#	175112
#	191513
#	207684
#	222640
#	239212
#	251752
#	265860
#
# Disc length: 3758 seconds
#
# Revision: 1
# Processed by: cddbd v1.5.1PL0 Copyright (c) Steve Scherf et al.
# Submitted via: audiograbber 1.83.01
#
DISCID=260eac12
DTITLE=Various Artist - RC51
DYEAR=1998
DGENRE=Country
TTITLE0=Tim McGraw - For A Little While
TTITLE1=Alan Jackson - Right On The Money
TTITLE2=Garth Brooks - It's Your Song
TTITLE3=Martina McBride - Wrong Again
TTITLE4=Diamond Rio - Unbelievable
TTITLE5=Jo Dee Messina - Stand Beside Me
TTITLE6=Wade Hayes - How Do You Sleep At Night
TTITLE7=Deana Carter - Absence Of The Heart
TTITLE8=John Michael Montgomery - Hold On To Me
TTITLE9=Reba - Wrong Night
TTITLE10=Toby Keith - Getcha Some
TTITLE11=Aaron Tippin - For You I Will
TTITLE12=Wilkinsons - Fly (The Angel Song)
TTITLE13=Blackhawk - There You Have It
TTITLE14=Sara Evans - No Place That Far
TTITLE15=Clay Walker - You're Beginning To Get To Me
TTITLE16=Randy Travis - Spirit Of A Boy Wisdom Of A Man
TTITLE17=Kenny Chesney - I Will Stand
EXTD=
EXTT0=
EXTT1=
EXTT2=
EXTT3=
EXTT4=
EXTT5=
EXTT6=
EXTT7=
EXTT8=
EXTT9=
EXTT10=
EXTT11=
EXTT12=
EXTT13=
EXTT14=
EXTT15=
EXTT16=
EXTT17=
PLAYORDER=
